HIERARCHY
ROOT Hips
{
	OFFSET -0.001795 -0.223333 0.028219
	CHANNELS 6 Xposition Yposition Zposition Zrotation Yrotation Xrotation 
	JOINT LeftUpLeg
	{
		OFFSET 0.069520 -0.091406 -0.006815
		CHANNELS 3 Zrotation Yrotation Xrotation
		JOINT LeftLeg
		{
			OFFSET 0.034277 -0.375199 -0.004496
			CHANNELS 3 Zrotation Yrotation Xrotation
			JOINT LeftFoot
			{
				OFFSET -0.013596 -0.397961 -0.043693
				CHANNELS 3 Zrotation Yrotation Xrotation
				JOINT LeftToe
				{
					OFFSET 0.026358 -0.055791 0.119288
					CHANNELS 3 Zrotation Yrotation Xrotation
					End Site
					{
						OFFSET 0.000000 0.000000 0.000000
					}
				}
			}
		}
	}
	JOINT RightUpLeg
	{
		OFFSET -0.067670 -0.090522 -0.004320
		CHANNELS 3 Zrotation Yrotation Xrotation
		JOINT RightLeg
		{
			OFFSET -0.038290 -0.382569 -0.008850
			CHANNELS 3 Zrotation Yrotation Xrotation
			JOINT RightFoot
			{
				OFFSET 0.015774 -0.398415 -0.042312
				CHANNELS 3 Zrotation Yrotation Xrotation
				JOINT RightToe
				{
					OFFSET -0.025372 -0.048144 0.123348
					CHANNELS 3 Zrotation Yrotation Xrotation
					End Site
					{
						OFFSET 0.000000 0.000000 0.000000
					}
				}
			}
		}
	}
	JOINT Spine
	{
		OFFSET -0.002533 0.108963 -0.026696
		CHANNELS 3 Zrotation Yrotation Xrotation
		JOINT Spine1
		{
			OFFSET 0.005487 0.135180 0.001092
			CHANNELS 3 Zrotation Yrotation Xrotation
			JOINT Spine2
			{
				OFFSET 0.001457 0.052922 0.025425
				CHANNELS 3 Zrotation Yrotation Xrotation
				JOINT Neck
				{
					OFFSET -0.002778 0.213870 -0.042857
					CHANNELS 3 Zrotation Yrotation Xrotation
					JOINT Head
					{
						OFFSET 0.005152 0.064970 0.051349
						CHANNELS 3 Zrotation Yrotation Xrotation
						End Site
						{
							OFFSET 0.000000 0.000000 0.000000
						}
					}
				}
				JOINT LeftShoulder
				{
					OFFSET 0.078845 0.121749 -0.034090
					CHANNELS 3 Zrotation Yrotation Xrotation
					JOINT LeftArm
					{
						OFFSET 0.090977 0.030469 -0.008868
						CHANNELS 3 Zrotation Yrotation Xrotation
						JOINT LeftForeArm
						{
							OFFSET 0.259612 -0.012772 -0.027456
							CHANNELS 3 Zrotation Yrotation Xrotation
							JOINT LeftHand
							{
								OFFSET 0.249234 0.008986 -0.001171
								CHANNELS 3 Zrotation Yrotation Xrotation
								End Site
								{
									OFFSET 0.000000 0.000000 0.000000
								}
							}
						}
					}
				}
				JOINT RightShoulder
				{
					OFFSET -0.081759 0.118833 -0.038615
					CHANNELS 3 Zrotation Yrotation Xrotation
					JOINT RightArm
					{
						OFFSET -0.096012 0.032551 -0.009143
						CHANNELS 3 Zrotation Yrotation Xrotation
						JOINT RightForeArm
						{
							OFFSET -0.253742 -0.013329 -0.021401
							CHANNELS 3 Zrotation Yrotation Xrotation
							JOINT RightHand
							{
								OFFSET -0.255298 0.007772 -0.005559
								CHANNELS 3 Zrotation Yrotation Xrotation
								End Site
								{
									OFFSET 0.000000 0.000000 0.000000
								}
							}
						}
					}
				}
			}
		}
	}
}
MOTION
Frames: 7
Frame Time: 0.050000
-0.415924 0.931405 1.418269 -179.202527 73.847441 179.052053 -5.390171 -1.860124 9.283987 0.127750 -1.037791 -2.363567 3.605239 -6.021459 -2.864393 0.000000 0.000000 0.000000 10.007088 -4.365751 -27.381946 -31.305494 -11.549160 47.466472 17.869494 24.552758 2.840807 0.000000 0.000000 0.000000 -1.718668 -1.559439 12.282556 3.841517 -3.049704 -2.588954 -4.586563 3.929392 10.007917 0.532732 8.339649 -30.272535 0.000000 0.000000 0.000000 -23.628324 -23.869519 -17.822643 -30.555293 4.013190 1.545134 -5.986616 -40.851639 -0.923283 0.000000 0.000000 0.000000 27.530735 -0.162983 22.067593 47.707165 14.085135 -4.765696 -6.888202 27.254675 -0.580475 0.000000 0.000000 0.000000 
-0.373328 0.924638 1.400071 -176.749828 71.972142 -178.918333 -5.293262 -3.559829 13.864612 0.400842 -0.960209 -3.022990 3.683263 -6.605648 -3.980878 0.000000 0.000000 0.000000 11.594891 -4.718227 -28.741285 -14.369450 -9.344705 32.414823 14.043201 16.910078 3.060585 0.000000 0.000000 0.000000 -0.657450 -1.970805 13.299252 3.469992 -2.827312 -2.862351 -4.515118 2.426445 10.447809 2.055129 8.198049 -31.300258 0.000000 0.000000 0.000000 -20.686225 -25.427655 -14.743745 -31.200092 -1.247006 2.312030 -1.879329 -45.551013 -3.785813 0.000000 0.000000 0.000000 25.787997 -0.238738 20.485056 50.868872 12.627345 -4.416764 -7.561040 26.333449 -0.481417 0.000000 0.000000 0.000000 
-0.327832 0.915892 1.378842 -176.647341 70.500655 -178.749190 -6.032698 -4.982236 17.395081 0.735841 -0.820590 -2.953049 2.927698 -6.740264 -3.852730 0.000000 0.000000 0.000000 13.253944 -4.547274 -28.952433 -4.679011 -5.667379 18.985219 6.975091 8.804030 8.665141 0.000000 0.000000 0.000000 0.057127 -1.887548 12.888020 2.936382 -3.186021 -2.094226 -4.078205 1.439845 10.562500 1.500373 8.385346 -31.748785 0.000000 0.000000 0.000000 -20.755913 -28.612768 -13.457847 -30.925783 -5.593654 3.623241 2.132976 -48.779826 -6.363722 0.000000 0.000000 0.000000 26.352663 0.286719 21.152648 50.163131 11.950180 -4.972544 -7.780635 26.296725 -0.594362 0.000000 0.000000 0.000000 
-0.278788 0.906229 1.353112 179.918359 69.125148 178.232282 -7.194554 -5.787027 19.421477 -1.610256 -1.006136 -0.559846 5.680390 -3.216386 -3.620319 0.000000 0.000000 0.000000 14.143737 -4.442684 -28.889758 -3.735933 -4.827163 16.307856 2.392344 5.004607 13.111139 0.000000 0.000000 0.000000 -0.094665 -1.618737 12.026629 3.861819 -3.802273 -1.869407 -5.468746 1.455982 10.290632 1.841658 8.175258 -31.537780 0.000000 0.000000 0.000000 -21.646112 -31.124373 -13.174730 -31.063511 -8.176702 4.538529 3.104002 -50.120943 -7.020126 0.000000 0.000000 0.000000 28.995088 -0.356546 22.976766 48.181316 12.666835 -5.739168 -10.362346 24.287965 -1.140883 0.000000 0.000000 0.000000 
-0.226659 0.900553 1.325042 177.060559 68.571625 175.541193 -7.137817 -5.945487 19.714601 -4.430057 -1.449526 5.105305 0.981868 -7.331427 -3.328852 0.000000 0.000000 0.000000 14.841822 -3.971333 -27.819967 -7.588731 -6.052745 21.179368 2.282417 3.386669 7.666678 0.000000 0.000000 0.000000 0.358683 -1.121435 10.222349 4.929730 -5.388142 -0.297104 -6.577367 1.503531 8.274301 0.818247 7.937647 -29.520782 0.000000 0.000000 0.000000 -23.530243 -30.456590 -14.303139 -31.520352 -9.294438 5.138499 -1.689239 -52.297617 -4.466598 0.000000 0.000000 0.000000 30.942887 -0.355113 24.332174 45.796855 10.928059 -6.983997 -9.323781 23.755095 -1.128855 0.000000 0.000000 0.000000 
-0.175596 0.903308 1.298872 175.366599 69.111349 174.086352 -3.619049 -3.986479 13.664390 -12.081600 -4.876177 20.568270 -0.110127 -6.271521 -1.511775 0.000000 0.000000 0.000000 15.099488 -3.408627 -26.663840 -12.155731 -7.602451 26.621776 4.700242 4.802605 1.690437 0.000000 0.000000 0.000000 0.204850 -0.845289 9.082720 5.999271 -5.315251 -1.186730 -7.446066 1.687712 8.936591 1.198367 7.794346 -28.988359 0.000000 0.000000 0.000000 -23.769079 -31.821085 -14.605743 -33.563330 -7.354324 5.241223 -4.356840 -53.319117 -3.935918 0.000000 0.000000 0.000000 30.525849 -0.780762 24.108646 44.907005 10.077686 -7.069392 -8.254501 24.853717 -1.057798 0.000000 0.000000 0.000000 
-0.129639 0.909311 1.277711 175.516438 69.492033 173.738654 2.024122 -2.736817 5.666639 -24.820361 -9.297550 33.717315 8.212219 5.929605 1.611043 0.000000 0.000000 0.000000 14.769649 -1.726412 -22.128379 -14.496738 -7.629930 26.999319 6.748540 6.248375 -0.232386 0.000000 0.000000 0.000000 0.268020 -1.065642 10.126199 5.884356 -5.535036 -0.692105 -6.995950 3.215150 7.136490 2.158533 7.381258 -27.761529 0.000000 0.000000 0.000000 -23.987342 -31.686974 -14.855661 -34.644196 -5.956587 5.035105 -10.956364 -54.927421 -0.938041 0.000000 0.000000 0.000000 30.354494 -1.280367 23.565058 44.463752 10.137759 -6.889325 -7.475989 26.292993 -0.900189 0.000000 0.000000 0.000000 
